contact_force_test_states
version=1
nRows=4
nColumns=61
inDegrees=yes

# SIMM Motion File Header:
name contact_force_test_states
datacolumns 61
datarows 4
otherdata 1
range 0.03278301 0.03529064
endheader
time	/jointset/ground_pelvis/pelvis_list/value	/jointset/ground_pelvis/pelvis_list/speed	/jointset/ground_pelvis/pelvis_rotation/value	/jointset/ground_pelvis/pelvis_rotation/speed	/jointset/ground_pelvis/pelvis_tilt/value	/jointset/ground_pelvis/pelvis_tilt/speed	/jointset/ground_pelvis/pelvis_tx/value	/jointset/ground_pelvis/pelvis_tx/speed	/jointset/ground_pelvis/pelvis_ty/value	/jointset/ground_pelvis/pelvis_ty/speed	/jointset/ground_pelvis/pelvis_tz/value	/jointset/ground_pelvis/pelvis_tz/speed	/jointset/hip_r/hip_adduction_r/value	/jointset/hip_r/hip_adduction_r/speed	/jointset/hip_r/hip_rotation_r/value	/jointset/hip_r/hip_rotation_r/speed	/jointset/hip_r/hip_flexion_r/value	/jointset/hip_r/hip_flexion_r/speed	/jointset/hip_l/hip_adduction_l/value	/jointset/hip_l/hip_adduction_l/speed	/jointset/hip_l/hip_rotation_l/value	/jointset/hip_l/hip_rotation_l/speed	/jointset/hip_l/hip_flexion_l/value	/jointset/hip_l/hip_flexion_l/speed	/jointset/knee_r/knee_flexion_r/value	/jointset/knee_r/knee_flexion_r/speed	/jointset/knee_l/knee_flexion_l/value	/jointset/knee_l/knee_flexion_l/speed	/jointset/ankle_r/ankle_dorsiflexion_r/value	/jointset/ankle_r/ankle_dorsiflexion_r/speed	/jointset/ankle_l/ankle_dorsiflexion_l/value	/jointset/ankle_l/ankle_dorsiflexion_l/speed	/forceset/hamstrings_r/activation	/forceset/hamstrings_r/fiber_length	/forceset/glut_max_r/activation	/forceset/glut_max_r/fiber_length	/forceset/ilipsoas_r/activation	/forceset/ilipsoas_r/fiber_length	/forceset/vasti_r/activation	/forceset/vasti_r/fiber_length	/forceset/gastroc_r/activation	/forceset/gastroc_r/fiber_length	/forceset/soleus_r/activation	/forceset/soleus_r/fiber_length	/forceset/tibia_r/activation	/forceset/tibia_r/fiber_length	/forceset/hamstrings_l/activation	/forceset/hamstrings_l/fiber_length	/forceset/glut_max_l/activation	/forceset/glut_max_l/fiber_length	/forceset/ilipsoas_l/activation	/forceset/ilipsoas_l/fiber_length	/forceset/vasti_l/activation	/forceset/vasti_l/fiber_length	/forceset/gastroc_l/activation	/forceset/gastroc_l/fiber_length	/forceset/soleus_l/activation	/forceset/soleus_l/fiber_length	/forceset/tibia_l/activation	/forceset/tibia_l/fiber_length
      0.03278301	      0.00000000	      0.00000000	     -0.00000000	     -0.00000000	      0.51964751	     23.35532455	      0.00210487	      0.09492315	      0.96523054	      0.58311383	     -0.00000000	      0.00000000	     -0.00015584	      0.00931243	      0.00830384	      0.53420662	     -0.56971641	    -25.80100002	      0.00015584	     -0.00931243	     -0.00830384	     -0.53420662	     -0.56971641	    -25.80100002	     -0.42614934	    -14.48552071	     -0.42614934	    -14.48552071	      2.49082309	     46.27618299	      2.49082309	     46.27618299	      0.03159613	      0.10578732	      0.03159613	      0.09406149	      0.03159613	      0.10893200	      0.03159613	      0.09379159	      0.03159613	      0.06904064	      0.03159613	      0.05791167	      0.03159613	      0.09398527	      0.03159613	      0.10578732	      0.03159613	      0.09406149	      0.03159613	      0.10893200	      0.03159613	      0.09379159	      0.03159613	      0.06904064	      0.03159613	      0.05791167	      0.03159613	      0.09398527
      0.03356829	      0.00000000	      0.00000000	     -0.00000000	     -0.00000000	      0.53806239	     23.54398646	      0.00217968	      0.09559213	      0.96568845	      0.58309115	     -0.00000000	      0.00000000	     -0.00014827	      0.00997774	      0.00872886	      0.54819683	     -0.59001167	    -25.88691269	      0.00014827	     -0.00997774	     -0.00872886	     -0.54819683	     -0.59001167	    -25.88691269	     -0.43766118	    -14.83411523	     -0.43766118	    -14.83411523	      2.52724511	     46.48956507	      2.52724511	     46.48956507	      0.03125855	      0.10577496	      0.03125855	      0.09395387	      0.03125855	      0.10895092	      0.03125855	      0.09366562	      0.03125855	      0.06885768	      0.03125855	      0.05774879	      0.03125855	      0.09386240	      0.03125855	      0.10577496	      0.03125855	      0.09395387	      0.03125855	      0.10895092	      0.03125855	      0.09366562	      0.03125855	      0.06885768	      0.03125855	      0.05774879	      0.03125855	      0.09386240
      0.03434384	      0.00000000	      0.00000000	     -0.00000000	     -0.00000000	      0.55639305	     23.72725424	      0.00225407	      0.09623857	      0.96614062	      0.58296643	     -0.00000000	     -0.00000000	     -0.00014028	      0.01063381	      0.00915922	      0.56154861	     -0.61011927	    -25.96641188	      0.00014028	     -0.01063381	     -0.00915922	     -0.56154861	     -0.61011927	    -25.96641188	     -0.44930061	    -15.18271493	     -0.44930061	    -15.18271493	      2.56338978	     46.72652551	      2.56338978	     46.72652551	      0.03092901	      0.10576225	      0.03092901	      0.09384888	      0.03092901	      0.10896961	      0.03092901	      0.09354218	      0.03092901	      0.06868078	      0.03092901	      0.05759162	      0.03092901	      0.09374192	      0.03092901	      0.10576225	      0.03092901	      0.09384888	      0.03092901	      0.10896961	      0.03092901	      0.09354218	      0.03092901	      0.06868078	      0.03092901	      0.05759162	      0.03092901	      0.09374192
      0.03529064	      0.00000000	     -0.00000000	     -0.00000000	     -0.00000000	      0.57896242	     23.94717139	      0.00234555	      0.09700994	      0.96669245	      0.58268563	     -0.00000000	      0.00000000	     -0.00012983	      0.01143536	      0.00969838	      0.57725203	     -0.63474758	    -26.05677304	      0.00012983	     -0.01143536	     -0.00969838	     -0.57725203	     -0.63474758	    -26.05677304	     -0.46387919	    -15.61379351	     -0.46387919	    -15.61379351	      2.60777855	     47.04416521	      2.60777855	     47.04416521	      0.03053179	      0.10574607	      0.03053179	      0.09372242	      0.03053179	      0.10899240	      0.03053179	      0.09339278	      0.03053179	      0.06846968	      0.03053179	      0.05740445	      0.03053179	      0.09359601	      0.03053179	      0.10574607	      0.03053179	      0.09372242	      0.03053179	      0.10899240	      0.03053179	      0.09339278	      0.03053179	      0.06846968	      0.03053179	      0.05740445	      0.03053179	      0.09359601
